<?xml version="1.0" encoding="UTF-8"?><svg id="a" xmlns="http://www.w3.org/2000/svg" viewBox="0 0 1800 1727.37"><path d="M781.9,785.91c-193.95-45.75,14.33-73.81-14.21-335.55-1.17-.7-2.33-1.39-3.5-2.09-44.07,43.79-82.93,95.99-138.59,125.62-70.97,35.52-148.26,55.29-224.73,75.21-20.79,5.38-29.2,.26-39.06-19.31-7.9-15.66-15.03-31.71-23-48.64-23.4,15.55-45.54,31.7-69.04,45.55-53.29,30.98-91.32,80.21-142.63,113.61-31.01,24.69-61.89-19.79-28.53-40.96,11.68-9.02,24.9-16.27,35.61-26.26,8.02-7.33,49.08-52.54,15.21-46.36-33.06,12.29-64.86,27.82-97.43,41.2-29.58,14.57-51.56-34.08-20.11-46.18,31.94-14.9,65.69-26.16,96.98-42.37,3.09-1.85,5.07-5.54,7.55-8.4-29.1-22.99-69.73-5.75-102.57-1.03-36.67,9.29-48.09-46.89-11.29-52.4,45.51-9.1,91.99-12.78,138-18.39,7.56-1.07,14.73-4.87,21.77-9.67-19.15-4.22-38.65-12.92-30.42-36,4.61-16.54,14.23-23.49,30.63-18.44,23.34,7.19,46.28,15.88,68.86,25.21,16.64,6.88,32.64,15.01,52.35,13.44-4.45-28.27-29.29-76.45,16.88-77.51,68.57-7.48,137.2-11.75,206.01-3.12,12.07,1.51,21.66-3.38,30.93-10.15,41.43-28.25,79.44-63.38,125.06-84.67,47.24-18.49,90.45-46.43,140.22-59.02,17.63-4.46,30.5-15.68,37.36-33.22-28.22-13.56-43.1-33.74-43.48-64.91-1.16-24.42-1.35-49,0-73.41-1.2-62.33,61.19-74.13,111-64.95,28.91,4.78,48.38,22.55,50.72,52.43-1.34,50.01,21.73,129.93-42.08,148.98,6.34,16.84,17.02,28.71,32.92,33.08,46.93,12.89,88.84,37.45,133.52,55.52,72.94,21.69,116.03,107.59,197.66,96.66,60.4-7.09,120.91,.85,181.03,8.64,37.24,4.39,12.47,52.17,10.58,78.07,42.69-6.16,77.6-30.74,117.82-43.81,20.08-5.23,32.02,2.78,35,23.45,1.57,10.86-2.14,19.27-12.35,23.95-5.47,2.51-11.29,4.28-17.68,9.23,51.79,17.52,107.97,8.15,160.83,21.26,38.9,5.09,27.93,62.53-10.45,53.07-29.79-6.07-59.52-10.98-89.75-4.65-4.93,.7-9.31,5.25-13.95,8.04,3.93,3.35,7.34,7.99,11.88,9.84,31.3,12.86,63.43,23.74,94.81,36.35,15.23,6.61,20.26,17.88,15.13,32.18-5.47,15.25-16.4,21.11-32.68,15.19-25.7-9.35-50.88-20.15-76.39-30.04-9.02-3-44.23-18.74-34.63,3.69,10.56,13.05,20.66,26.79,33.02,37.98,19.35,17.47,72.73,36.3,38.32,67-9.84,7.91-20.25,5.73-29.11-.42-69.24-48.64-146.73-117.76-224.34-156.48-7.1,14.85-14.12,29.72-21.32,44.51-12.21,25.1-19.01,29.93-45.92,22.24-209.7-62.53-206.6-44.69-360.82-203-26.03,206.38,115.8,289.6,54.23,316.15-22.21,10.71-46.09,16.37-69.08,25.5,36.24,1.62,68.94,11.23,85.85,46.02,94.31,174.71,175.14,356.16,257.01,536.88,14.14,29.8,32.87,57.5,50.49,85.54,37.49,68.86-41.73,82.66-87.77,92.97,11.86,20.68,22.71,40.31,34.43,59.41,21.04,12.48,43.07,26.53,42.12,54.94-5.25,87.94-200.41,88.6-194.8-16.75-.79-23.76,1.34-46.71,.82-70.66-35.07,8.28-70.05,15.79-105.69,9.3-49.5-7.58-26.59-65.85-27.71-100.01,.34-94.51,7.05-189.73-1.04-283.97-14.62-70.84-60.07-136.11-116.06-181.28-37.19-27.31-70.36-35-107.28-3.98-51.7,40.49-91.69,90.51-111.08,154.57-18.53,91.99-5.32,187.9-8.19,281.33-.1,33.42,7.71,66.79,6.13,100.24-11.08,60.49-97.01,31.05-138.29,21.89,1.26,29.05,2.34,56.91,.05,85.58-6.16,116.79-271.48,66.81-171.26-38.72,6.85-5.14,14.57-9.1,21.62-13.99,12.34-17.96,20.65-37.62,32.55-58.06-27-7.93-56.03-9.45-78.75-26.8-49.58-40.4,14.94-90.09,30.94-131.15,92.28-186.3,163.23-384.1,274.05-560.68,18.25-28.11,47.91-38.26,79.09-44.09Z"/></svg>